<svg xmlns="http://www.w3.org/2000/svg" viewBox="0 0 237.22 236.95"><defs><style>.cls-1{fill:#af9ac4;}.cls-2{fill:#451375;}.cls-3{fill:#e64846;}</style></defs><title>Asset 2</title><g id="Layer_2" data-name="Layer 2"><g id="Layer_1-2" data-name="Layer 1"><path class="cls-1" d="M0,111.72a.47.47,0,0,1,.33,0A2.27,2.27,0,0,1,1,113.63c.05,3.15.05,6.31,0,9.46A2.29,2.29,0,0,1,.33,125H.16L0,125Z"/><path class="cls-2" d="M112,0h13a116.37,116.37,0,0,1,52.34,15.28,3.65,3.65,0,0,1,.44.36c-.05,1.05-1,1.32-1.65,1.73a114.85,114.85,0,0,0-26.39,21.76,115.74,115.74,0,0,0-26.49,48.7,123.33,123.33,0,0,0-3.71,22.85,117.74,117.74,0,0,0,38.19,94.91,112.61,112.61,0,0,0,18.23,13.66c.74.44,1.73.71,1.83,1.82a106.89,106.89,0,0,1-29,12A118.6,118.6,0,0,1,4.54,150.54,110.31,110.31,0,0,1,.33,125V111.69Q5,49.8,57.54,16.83C74.12,6.43,92.44,1.05,112,0Z"/><path class="cls-3" d="M177.76,221.07c-4.73-3.08-9.51-6.09-13.94-9.62a118.2,118.2,0,0,1-37.32-50.73,114.13,114.13,0,0,1-7.5-34.67q-2.77-48.39,28.65-85.28a114.3,114.3,0,0,1,28.67-24.12c.5-.3,1-.67,1.43-1,5.58-2.91,11.12-5.93,17.08-8,7.1-2.48,14.06-5.45,21.66-6.19a32.3,32.3,0,0,1,9.52.35c6.48,1.29,10.42,5.89,11,12.67.12,1.55.15,3.12.15,4.68q.06,99.54.1,199.09a27.14,27.14,0,0,1-.6,6.78,13.53,13.53,0,0,1-12.76,10.48,51.59,51.59,0,0,1-21-3.31A170.52,170.52,0,0,1,177.76,221.07Z"/></g></g></svg>